<svg width="20" height="22" viewBox="0 0 20 22" fill="none" xmlns="http://www.w3.org/2000/svg">
<g clip-path="url(#clip0_176:849)">
<path fill-rule="evenodd" clip-rule="evenodd" d="M19.2508 15.9488C17.9629 14.3481 16.0873 11.5326 16.0873 8.71618C16.0873 5.9898 14.2403 3.69123 11.7142 2.96077C11.7264 2.88018 11.7395 2.79873 11.7395 2.71471C11.7395 1.76819 10.9603 1 10.0003 1C9.03946 1 8.2612 1.76819 8.2612 2.71471C8.2612 2.79873 8.27424 2.88018 8.28641 2.96077C5.75946 3.69123 3.91337 5.9898 3.91337 8.71618C3.91337 11.5326 2.03772 14.3481 0.749893 15.9488C0.138588 16.7101 0.477719 17.8444 1.42207 18.1188C2.92815 18.5569 5.55511 19.0044 10.0003 19.0044C14.4447 19.0044 17.0725 18.5569 18.5786 18.1188C19.5229 17.8444 19.8621 16.7101 19.2508 15.9488Z" stroke="#444444" stroke-linecap="round" stroke-linejoin="round"/>
<path fill-rule="evenodd" clip-rule="evenodd" d="M12.609 18.9446V19.0046C12.609 20.4278 11.4438 21.5767 10.0003 21.5767C8.55682 21.5767 7.3916 20.4278 7.3916 19.0046V18.9446C8.18291 18.9883 9.05247 19.0046 10.0003 19.0046C10.9481 19.0046 11.8177 18.9883 12.609 18.9446Z" stroke="#444444" stroke-linecap="round" stroke-linejoin="round"/>
</g>
<defs>
<clipPath id="clip0_176:849">
<rect width="20" height="22" fill="white"/>
</clipPath>
</defs>
</svg>
