<svg width="30" height="30" viewBox="0 0 30 30" fill="none" xmlns="http://www.w3.org/2000/svg">
<rect x="5.5" y="8.5" width="19" height="16" rx="0.5" fill="#5F5F5F" stroke="#5F5F5F"/>
<rect x="5.5" y="12.5" width="19" height="12" rx="1.5" fill="white" stroke="#5F5F5F"/>
<line x1="9.35303" y1="7.85715" x2="9.35303" y2="9.76191" stroke="white" stroke-width="4"/>
<ellipse cx="9.70597" cy="9.76189" rx="2.35294" ry="0.952381" fill="white"/>
<ellipse cx="9.70597" cy="9.76189" rx="2.35294" ry="0.952381" fill="white"/>
<rect x="8.5293" y="5" width="2.35294" height="4.7619" rx="1.17647" fill="#5F5F5F"/>
<line x1="19.9414" y1="7.85715" x2="19.9414" y2="9.76191" stroke="white" stroke-width="4"/>
<ellipse cx="20.2943" cy="9.76189" rx="2.35294" ry="0.952381" fill="white"/>
<ellipse cx="20.2943" cy="9.76189" rx="2.35294" ry="0.952381" fill="white"/>
<rect x="19.1182" y="5" width="2.35294" height="4.7619" rx="1.17647" fill="#5F5F5F"/>
<rect x="16.7646" y="15.4762" width="1.17647" height="0.952381" fill="#5F5F5F"/>
<rect x="19.1177" y="15.4762" width="1.17647" height="0.952381" fill="#5F5F5F"/>
<rect x="21.4707" y="15.4762" width="1.17647" height="0.952381" fill="#5F5F5F"/>
<rect x="9.70605" y="21.1905" width="1.17647" height="0.952381" fill="#5F5F5F"/>
<rect x="12.0586" y="21.1905" width="1.17647" height="0.952381" fill="#5F5F5F"/>
<rect x="14.4116" y="21.1905" width="1.17647" height="0.952381" fill="#5F5F5F"/>
<rect x="16.7646" y="21.1905" width="1.17647" height="0.952381" fill="#5F5F5F"/>
<rect x="19.1177" y="21.1905" width="1.17647" height="0.952381" fill="#5F5F5F"/>
<rect x="21.4707" y="21.1905" width="1.17647" height="0.952381" fill="#5F5F5F"/>
<rect x="7.35303" y="21.1905" width="1.17647" height="0.952381" fill="#5F5F5F"/>
<rect x="9.70605" y="17.381" width="1.17647" height="0.952381" fill="#5F5F5F"/>
<rect x="12.0586" y="17.381" width="1.17647" height="0.952381" fill="#5F5F5F"/>
<rect x="14.4116" y="17.381" width="1.17647" height="0.952381" fill="#5F5F5F"/>
<rect x="16.7646" y="17.381" width="1.17647" height="0.952381" fill="#5F5F5F"/>
<rect x="19.1177" y="17.381" width="1.17647" height="0.952381" fill="#5F5F5F"/>
<rect x="21.4707" y="17.381" width="1.17647" height="0.952381" fill="#5F5F5F"/>
<rect x="7.35303" y="17.381" width="1.17647" height="0.952381" fill="#5F5F5F"/>
<rect x="9.70605" y="19.2857" width="1.17647" height="0.952381" fill="#5F5F5F"/>
<rect x="12.0586" y="19.2857" width="1.17647" height="0.952381" fill="#5F5F5F"/>
<rect x="14.4116" y="19.2857" width="1.17647" height="0.952381" fill="#5F5F5F"/>
<rect x="16.7646" y="19.2857" width="1.17647" height="0.952381" fill="#5F5F5F"/>
<rect x="19.1177" y="19.2857" width="1.17647" height="0.952381" fill="#5F5F5F"/>
<rect x="21.4707" y="19.2857" width="1.17647" height="0.952381" fill="#5F5F5F"/>
<rect x="7.35303" y="19.2857" width="1.17647" height="0.952381" fill="#5F5F5F"/>
</svg>
