<svg width="20" height="20" viewBox="0 0 20 20" fill="none" xmlns="http://www.w3.org/2000/svg">
<g clip-path="url(#clip0_176:567)">
<path opacity="0.24" fill-rule="evenodd" clip-rule="evenodd" d="M19.8992 17.8664C19.8432 17.7064 19.692 17.6 19.5224 17.6C19.3528 17.6 19.2016 17.7064 19.1456 17.8664C19.1008 17.9912 19.0424 18.0888 18.9656 18.1656C18.6632 18.468 18.1368 18.468 17.8344 18.1656L13.0344 13.3656C12.96 13.2904 12.9024 13.1944 12.8592 13.0736C14.2992 11.6896 15.2 9.74962 15.2 7.60002C15.2 7.31442 15.1816 7.03362 15.1504 6.75602C15.1288 6.55362 14.9568 6.40002 14.7528 6.40002C14.5496 6.40002 14.3784 6.55362 14.3552 6.75602C13.9744 10.2016 11.0696 12.8 7.6 12.8C4.1304 12.8 1.2256 10.2016 0.8448 6.75602C0.8216 6.55282 0.6504 6.40002 0.4472 6.40002C0.2432 6.40002 0.0712 6.55362 0.0496 6.75602C0.0184 7.03362 0 7.31442 0 7.60002C0 11.7904 3.4096 15.2 7.6 15.2C9.2528 15.2 10.7792 14.664 12.028 13.7648C12.0624 14.1232 12.2032 14.4664 12.4688 14.7312L17.2688 19.5312C17.5712 19.8336 17.9728 20 18.4 20C18.8272 20 19.2288 19.8336 19.5312 19.5312C19.9672 19.096 20.1088 18.4576 19.8992 17.8664Z" fill="#444444"/>
<path fill-rule="evenodd" clip-rule="evenodd" d="M14.7999 7.60002C14.7999 11.5768 11.5767 14.8 7.5999 14.8C3.6231 14.8 0.399902 11.5768 0.399902 7.60002C0.399902 3.62322 3.6231 0.400024 7.5999 0.400024C11.5767 0.400024 14.7999 3.62322 14.7999 7.60002Z" stroke="#444444" stroke-linecap="round" stroke-linejoin="round"/>
<path fill-rule="evenodd" clip-rule="evenodd" d="M18.4002 19.6C18.093 19.6 17.7858 19.4832 17.5514 19.2488L12.7514 14.4488C12.2834 13.98 12.2834 13.22 12.7514 12.7512C13.2202 12.2832 13.9802 12.2832 14.449 12.7512L19.249 17.5512C19.717 18.02 19.717 18.78 19.249 19.2488C19.0146 19.4832 18.7074 19.6 18.4002 19.6Z" stroke="#444444" stroke-linecap="round" stroke-linejoin="round"/>
</g>
<defs>
<clipPath id="clip0_176:567">
<rect width="20" height="20" fill="white"/>
</clipPath>
</defs>
</svg>
